<svg data-v-423bf9ae="" xmlns="http://www.w3.org/2000/svg" viewBox="0 0 508 90" class="iconLeft"><!----><defs data-v-423bf9ae=""><linearGradient data-v-423bf9ae="" gradientTransform="rotate(25)" id="683cb59e-34a2-4feb-8e5b-ad804a6b5adf" x1="0%" y1="0%" x2="100%" y2="0%"><stop data-v-423bf9ae="" offset="0%" style="stop-color: rgb(48, 34, 58); stop-opacity: 1;"></stop><stop data-v-423bf9ae="" offset="100%" style="stop-color: rgb(241, 56, 0); stop-opacity: 1;"></stop></linearGradient></defs><!----><g data-v-423bf9ae="" id="a43a714a-6785-49ab-8008-026e5423a150" fill="#ffffff" transform="matrix(4.062288558871505,0,0,4.062288558871505,108.86254564250703,4.031821412597665)"><path d="M5.03 14.04Q4.20 14.04 3.60 13.62Q3.01 13.19 2.66 12.45L2.66 12.45L2.66 13.90L0.28 13.90L0.28 13.62L1.26 13.48L1.26 3.12L0.28 2.98L0.28 2.70L2.66 2.70L2.66 8.12Q3.01 7.38 3.60 6.95Q4.20 6.52 5.03 6.52L5.03 6.52Q6.02 6.52 6.78 6.99Q7.53 7.45 7.95 8.30Q8.37 9.14 8.37 10.28L8.37 10.28Q8.37 11.41 7.95 12.26Q7.53 13.10 6.78 13.57Q6.02 14.04 5.03 14.04L5.03 14.04ZM4.89 13.69Q6.83 13.69 6.83 10.98L6.83 10.98L6.83 9.58Q6.83 6.87 4.89 6.87L4.89 6.87Q4.27 6.87 3.77 7.23Q3.26 7.59 2.97 8.18Q2.67 8.78 2.66 9.48L2.66 9.48L2.66 10.98Q2.66 11.69 2.95 12.32Q3.23 12.95 3.75 13.32Q4.26 13.69 4.89 13.69L4.89 13.69ZM11.66 14.04Q10.77 14.04 10.19 13.57Q9.62 13.10 9.62 12.18L9.62 12.18Q9.62 10.86 10.72 10.31Q11.83 9.76 13.29 9.76L13.29 9.76L14.22 9.76L14.22 8.68Q14.22 7.95 14.06 7.55Q13.90 7.15 13.57 6.99Q13.23 6.83 12.66 6.83L12.66 6.83Q12.00 6.83 11.68 7.09Q11.35 7.35 11.35 7.78L11.35 7.78Q11.35 8.19 11.75 8.32L11.75 8.32Q11.75 8.67 11.48 8.93Q11.21 9.20 10.85 9.20L10.85 9.20Q10.46 9.20 10.22 8.98Q9.98 8.76 9.98 8.32L9.98 8.32Q9.98 7.50 10.79 7.01Q11.61 6.52 12.82 6.52L12.82 6.52Q15.62 6.52 15.62 8.96L15.62 8.96L15.62 12.96Q15.62 13.27 15.76 13.43Q15.89 13.59 16.14 13.59L16.14 13.59Q16.38 13.59 16.52 13.43Q16.66 13.27 16.66 12.99L16.66 12.99L16.95 12.99Q16.95 13.48 16.64 13.76Q16.32 14.04 15.76 14.04L15.76 14.04Q15.12 14.04 14.68 13.67Q14.24 13.30 14.22 12.52L14.22 12.52Q13.89 13.23 13.20 13.64Q12.50 14.04 11.66 14.04L11.66 14.04ZM12.43 13.43Q12.81 13.43 13.21 13.20Q13.61 12.98 13.89 12.55Q14.17 12.12 14.22 11.52L14.22 11.52L14.22 10.07L13.29 10.07Q12.14 10.07 11.57 10.58Q11.00 11.09 11.00 12.01L11.00 12.01Q11.00 12.78 11.37 13.10Q11.73 13.43 12.43 13.43L12.43 13.43ZM21.14 14.04Q20.13 14.04 19.31 13.57Q18.48 13.10 18.00 12.24Q17.51 11.38 17.51 10.28L17.51 10.28Q17.51 9.11 18.02 8.26Q18.54 7.41 19.36 6.97Q20.19 6.52 21.14 6.52L21.14 6.52Q21.94 6.52 22.60 6.80Q23.25 7.07 23.64 7.56Q24.02 8.05 24.02 8.67L24.02 8.67Q24.02 9.13 23.79 9.37Q23.55 9.62 23.16 9.62L23.16 9.62Q22.78 9.62 22.53 9.37Q22.27 9.11 22.27 8.74L22.27 8.74Q22.48 8.60 22.57 8.43Q22.65 8.26 22.65 8.01L22.65 8.01Q22.65 7.49 22.24 7.16Q21.83 6.83 21.14 6.83L21.14 6.83Q20.13 6.83 19.59 7.55Q19.05 8.27 19.05 9.58L19.05 9.58L19.05 10.98Q19.05 12.22 19.58 12.98Q20.10 13.73 21.14 13.73L21.14 13.73Q22.09 13.73 22.80 13.20Q23.51 12.66 23.67 11.77L23.67 11.77L24.00 11.77Q23.80 12.81 23.02 13.43Q22.25 14.04 21.14 14.04L21.14 14.04ZM28.07 13.90L24.85 13.90L24.85 13.62L25.83 13.48L25.83 3.12L24.85 2.98L24.85 2.70L27.23 2.70L27.23 9.88L30.44 7.25L29.22 6.93L29.22 6.65L31.85 6.65L31.85 6.93L30.95 7.25L28.63 9.16L31.91 13.50L32.66 13.62L32.66 13.90L29.39 13.90L29.39 13.62L30.23 13.48L27.59 10.01L27.23 10.32L27.23 13.48L28.07 13.62L28.07 13.90ZM36.36 14.04Q35.32 14.04 34.48 13.57Q33.64 13.10 33.15 12.25Q32.66 11.40 32.66 10.28L32.66 10.28Q32.66 9.16 33.15 8.31Q33.63 7.46 34.45 6.99Q35.27 6.52 36.27 6.52L36.27 6.52Q37.16 6.52 37.86 6.92Q38.56 7.31 38.95 8.00Q39.34 8.69 39.35 9.59L39.35 9.59L34.20 9.59L34.20 10.98Q34.20 12.21 34.76 12.97Q35.31 13.73 36.36 13.73L36.36 13.73Q37.32 13.73 38.07 13.19Q38.81 12.64 38.98 11.77L38.98 11.77L39.30 11.77Q39.10 12.81 38.30 13.43Q37.51 14.04 36.36 14.04L36.36 14.04ZM34.22 9.24L37.81 9.24Q37.81 8.02 37.44 7.43Q37.06 6.83 36.26 6.83L36.26 6.83Q35.32 6.83 34.80 7.49Q34.29 8.15 34.22 9.24L34.22 9.24ZM40.29 13.90L40.29 13.62L41.27 13.48L41.27 7.07L40.29 6.93L40.29 6.65L42.67 6.65L42.67 8.16Q43.19 7.41 43.89 6.97Q44.59 6.52 45.40 6.52L45.40 6.52Q46.41 6.52 46.99 7.03Q47.57 7.53 47.57 8.53L47.57 8.53L47.57 13.48L48.55 13.62L48.55 13.90L45.33 13.90L45.33 13.62L46.17 13.48L46.17 8.55Q46.17 7.83 45.88 7.43Q45.58 7.03 44.97 7.03L44.97 7.03Q44.32 7.03 43.73 7.50Q43.13 7.97 42.67 8.65L42.67 8.65L42.67 13.48L43.51 13.62L43.51 13.90L40.29 13.90ZM52.75 14.04Q51.76 14.04 51.00 13.57Q50.25 13.10 49.83 12.26Q49.41 11.41 49.41 10.28L49.41 10.28Q49.41 9.14 49.83 8.30Q50.25 7.45 51.00 6.99Q51.76 6.52 52.75 6.52L52.75 6.52Q53.56 6.52 54.17 6.95Q54.77 7.38 55.12 8.12L55.12 8.12L55.12 3.12L54.14 2.98L54.14 2.70L56.52 2.70L56.52 13.48L57.50 13.62L57.50 13.90L55.12 13.90L55.12 12.45Q54.77 13.19 54.17 13.62Q53.56 14.04 52.75 14.04L52.75 14.04ZM52.89 13.69Q53.51 13.69 54.01 13.34Q54.50 12.98 54.80 12.38Q55.10 11.79 55.12 11.09L55.12 11.09L55.12 9.48Q55.10 8.78 54.80 8.18Q54.50 7.59 54.01 7.23Q53.51 6.87 52.89 6.87L52.89 6.87Q50.95 6.87 50.95 9.58L50.95 9.58L50.95 10.98Q50.95 13.69 52.89 13.69L52.89 13.69ZM65.44 14.04Q64.40 14.04 63.56 13.57Q62.72 13.10 62.23 12.25Q61.74 11.40 61.74 10.28L61.74 10.28Q61.74 9.16 62.22 8.31Q62.71 7.46 63.53 6.99Q64.34 6.52 65.35 6.52L65.35 6.52Q66.23 6.52 66.93 6.92Q67.63 7.31 68.03 8.00Q68.42 8.69 68.43 9.59L68.43 9.59L63.28 9.59L63.28 10.98Q63.28 12.21 63.83 12.97Q64.39 13.73 65.44 13.73L65.44 13.73Q66.40 13.73 67.14 13.19Q67.89 12.64 68.05 11.77L68.05 11.77L68.38 11.77Q68.18 12.81 67.38 13.43Q66.58 14.04 65.44 14.04L65.44 14.04ZM63.29 9.24L66.89 9.24Q66.89 8.02 66.51 7.43Q66.14 6.83 65.34 6.83L65.34 6.83Q64.40 6.83 63.88 7.49Q63.36 8.15 63.29 9.24L63.29 9.24ZM69.37 13.90L69.37 13.62L70.35 13.48L70.35 7.07L69.37 6.93L69.37 6.65L71.75 6.65L71.75 8.16Q72.27 7.41 72.97 6.97Q73.67 6.52 74.48 6.52L74.48 6.52Q75.49 6.52 76.07 7.03Q76.65 7.53 76.65 8.53L76.65 8.53L76.65 13.48L77.63 13.62L77.63 13.90L74.41 13.90L74.41 13.62L75.25 13.48L75.25 8.55Q75.25 7.83 74.96 7.43Q74.66 7.03 74.05 7.03L74.05 7.03Q73.40 7.03 72.81 7.50Q72.21 7.97 71.75 8.65L71.75 8.65L71.75 13.48L72.59 13.62L72.59 13.90L69.37 13.90ZM85.44 5.99Q85.44 6.54 85.04 6.93Q84.63 7.32 83.75 7.43L83.75 7.43Q84.11 7.97 84.11 8.89L84.11 8.89Q84.11 9.98 83.34 10.61Q82.56 11.24 81.37 11.24L81.37 11.24Q80.88 11.24 80.47 11.16L80.47 11.16Q79.58 11.21 79.58 11.86L79.58 11.86Q79.58 12.22 79.88 12.39Q80.18 12.56 80.84 12.56L80.84 12.56L82.40 12.56Q83.54 12.56 84.09 13.02Q84.64 13.48 84.64 14.60L84.64 14.60Q84.64 15.39 84.25 16.04Q83.85 16.70 83.09 17.09Q82.33 17.47 81.28 17.47L81.28 17.47Q79.70 17.47 78.95 17.00Q78.20 16.52 78.20 15.74L78.20 15.74Q78.20 15.26 78.57 14.90Q78.93 14.53 79.56 14.53L79.56 14.53Q79.69 14.53 80.08 14.59L80.08 14.59Q79.65 15.05 79.65 15.68L79.65 15.68Q79.65 16.28 80.07 16.73Q80.49 17.18 81.44 17.18L81.44 17.18Q82.26 17.18 82.92 16.86Q83.57 16.55 83.92 16.04Q84.27 15.54 84.27 15.01L84.27 15.01Q84.27 14.42 83.89 14.16Q83.51 13.90 82.54 13.90L82.54 13.90L80.84 13.90Q79.86 13.90 79.36 13.52Q78.86 13.13 78.86 12.38L78.86 12.38Q78.86 11.87 79.15 11.49Q79.44 11.10 79.88 10.99L79.88 10.99Q78.67 10.47 78.67 8.89L78.67 8.89Q78.67 7.78 79.44 7.15Q80.21 6.52 81.37 6.52L81.37 6.52Q82.84 6.52 83.50 7.14L83.50 7.14Q83.89 7.07 84.08 6.88Q84.28 6.69 84.28 6.45L84.28 6.45Q84.28 6.23 84.15 6.11Q84.03 5.99 83.86 5.99L83.86 5.99Q83.86 5.68 84.09 5.45Q84.32 5.22 84.64 5.22L84.64 5.22Q84.99 5.22 85.22 5.43Q85.44 5.64 85.44 5.99L85.44 5.99ZM82.80 9.23L82.80 8.54Q82.80 7.69 82.44 7.22Q82.08 6.76 81.37 6.76L81.37 6.76Q79.98 6.76 79.98 8.54L79.98 8.54L79.98 9.23Q79.98 10.05 80.33 10.53Q80.67 11.00 81.37 11.00L81.37 11.00Q82.08 11.00 82.44 10.53Q82.80 10.05 82.80 9.23L82.80 9.23ZM87.25 5.03Q86.86 5.03 86.58 4.75Q86.30 4.48 86.30 4.09L86.30 4.09Q86.30 3.70 86.57 3.43Q86.84 3.16 87.25 3.16L87.25 3.16Q87.63 3.16 87.89 3.43Q88.16 3.70 88.16 4.09L88.16 4.09Q88.16 4.48 87.89 4.75Q87.63 5.03 87.25 5.03L87.25 5.03ZM89.12 13.90L85.76 13.90L85.76 13.62L86.74 13.48L86.74 7.08L85.76 6.94L85.76 6.66L88.14 6.66L88.14 13.48L89.12 13.62L89.12 13.90ZM89.80 13.90L89.80 13.62L90.78 13.48L90.78 7.07L89.80 6.93L89.80 6.65L92.18 6.65L92.18 8.16Q92.69 7.41 93.39 6.97Q94.09 6.52 94.91 6.52L94.91 6.52Q95.91 6.52 96.50 7.03Q97.08 7.53 97.08 8.53L97.08 8.53L97.08 13.48L98.06 13.62L98.06 13.90L94.84 13.90L94.84 13.62L95.68 13.48L95.68 8.55Q95.68 7.83 95.38 7.43Q95.09 7.03 94.47 7.03L94.47 7.03Q93.83 7.03 93.23 7.50Q92.64 7.97 92.18 8.65L92.18 8.65L92.18 13.48L93.02 13.62L93.02 13.90L89.80 13.90Z"></path></g><!----><g data-v-423bf9ae="" id="90090765-2a57-4602-946b-23d6ac1702cb" transform="matrix(2.8125,0,0,2.8125,0,0)" stroke="none" fill="#ffffff"><path d="M9.382 8.675h13.943v13.943L32 31.293V0H.707zM22.618 23.325H8.675V9.382L0 .707V32h31.293z"></path></g><!----></svg>